# xmcd
#
# Track frame offsets: 
#        150
#        10312
#        22380
#        32202
#        41950
#        55167
#        69215
#        80807
#        90620
#        104945
#        115110
#        126115
#        135815
#        149430
#        160877
#        172975
#        184667
#        201285
#        209792
#        219995
#        230815
#        248315
#        260977
#        272210
#
# Disc length: 3844 seconds
#
# Revision: 1
# Processed by: cddbd v1.5.2PL0 Copyright (c) Steve Scherf et al.
# Submitted via: ExactAudioCopy v0.99pb5
#
DISCID=700f0218
DTITLE=Various Artist - Country Christmas - Disc B
DYEAR=1988
DGENRE=Country
TTITLE0=Buck Owens - Santa looked a lot like daddy
TTITLE1=Dwight Yoakam - Santa Claus is back in town
TTITLE2=Loretta Lynn - It won't seem like Christmas
TTITLE3=Willie Nelson - What a merry Christmas this could be
TTITLE4=Elvis Presley - If every day was like Christmas
TTITLE5=Louvin Brothers - It came upon the midnight clear
TTITLE6=Gene Autry - Here comes Santa Claus (down Santa Claus Lane)
TTITLE7=Red Simpson - Truckin' trees for Christmas
TTITLE8=George Strait - When it's Christmas time in Texas
TTITLE9=Freddy Fender - Santa! Don't pass me by
TTITLE10=Homer and Jethro - Nuttin' for Christmas
TTITLE11=Hank Snow - The reindeer boogie
TTITLE12=Ronnie Milsap - It's Christmas
TTITLE13=George Jones - My mom and Santa Claus
TTITLE14=Tammy Wynette - White Christmas
TTITLE15=Johnny Cash - The little drummer boy
TTITLE16=Alabama - Christmas in Dixie
TTITLE17=Charley Pride - Let it snow, let it snow, let it snow
TTITLE18=Eddy Arnold - C-H-R-I-S-T-M-A-S
TTITLE19=Mikey Gilley - Lonely Christmas call
TTITLE20=Dolly Parton - Hard Candy Christmas
TTITLE21=Chet Atkins - Winter wonderland
TTITLE22=Merle Haggard - Goin' home for Christmas
TTITLE23=Reba McEntire - Silent night
EXTD=YEAR: 1988
EXTT0=
EXTT1=
EXTT2=
EXTT3=
EXTT4=
EXTT5=
EXTT6=
EXTT7=
EXTT8=
EXTT9=
EXTT10=
EXTT11=
EXTT12=
EXTT13=
EXTT14=
EXTT15=
EXTT16=
EXTT17=
EXTT18=
EXTT19=
EXTT20=
EXTT21=
EXTT22=
EXTT23=
PLAYORDER=
